<svg xmlns="http://www.w3.org/2000/svg" viewBox="0 0 40 40" width="200" height="200"><path fill="#dff0fe" d="M20,38.5c-4.434,0-5.624-3.141-6.58-5.664c-0.337-0.888-0.627-1.654-1.032-2.151 c-0.415-0.406-1.043-0.816-1.837-1.336C7.539,27.38,2.5,24.085,2.5,18C2.5,11.838,4.773,1.5,20,1.5S37.5,11.838,37.5,18 c0,6.018-5.047,9.354-8.063,11.347c-0.789,0.522-1.413,0.935-1.785,1.294c-0.445,0.541-0.735,1.308-1.072,2.195 C25.624,35.359,24.434,38.5,20,38.5z"/><path fill="#4788c7" d="M20,2c14.791,0,17,10.025,17,16c0,5.748-4.907,8.992-7.838,10.93 c-0.811,0.536-1.451,0.959-1.856,1.351l-0.043,0.041l-0.038,0.046c-0.456,0.56-0.76,1.362-1.112,2.291 C25.163,35.163,24.088,38,20,38s-5.163-2.837-6.112-5.341c-0.352-0.929-0.656-1.73-1.112-2.291l-0.038-0.046l-0.043-0.041 c-0.409-0.395-1.054-0.817-1.871-1.351C7.898,27.016,3,23.814,3,18C3,10.701,5.949,2,20,2 M20,1C5.607,1,2,10.02,2,18 s8.329,11.385,10,13c1.393,1.71,1.593,8,8,8s6.607-6.29,8-8c1.671-1.615,10-5.115,10-13S34.393,1,20,1L20,1z"/><path fill="#98ccfd" d="M15.536,23.5c-1.439,0-4.124-0.27-5.926-2.07c-2.569-2.57-2.162-6.988-1.914-7.732 c0.22-0.072,0.843-0.197,1.811-0.197c1.146,0,4.018,0.206,5.923,2.11c2.471,2.472,2.16,6.802,1.904,7.719 C17.076,23.396,16.443,23.5,15.536,23.5z"/><path fill="#4788c7" d="M9.507,14c1.084,0,3.796,0.191,5.569,1.964c2.078,2.078,2.044,5.676,1.837,6.939 C16.609,22.951,16.133,23,15.536,23c-1.362,0-3.898-0.25-5.572-1.924c-2.187-2.187-2.072-5.833-1.857-6.964 C8.398,14.057,8.882,14,9.507,14 M9.507,13c-1.175,0-2.038,0.184-2.18,0.327c-0.368,0.368-1.011,5.515,1.93,8.456 C11.045,23.57,13.681,24,15.536,24c1.197,0,2.069-0.179,2.177-0.287c0.276-0.276,1.011-5.515-1.93-8.456 C13.984,13.458,11.358,13,9.507,13L9.507,13z"/><path fill="#98ccfd" d="M24.464,23.5c-0.907,0-1.54-0.104-1.798-0.171c-0.256-0.917-0.566-5.247,1.904-7.719 c1.905-1.904,4.776-2.11,5.923-2.11c0.968,0,1.591,0.125,1.811,0.197c0.248,0.744,0.655,5.162-1.914,7.732 C28.588,23.23,25.904,23.5,24.464,23.5L24.464,23.5z"/><path fill="#4788c7" d="M30.493,14c0.625,0,1.11,0.057,1.4,0.111c0.215,1.131,0.33,4.778-1.857,6.964 C28.362,22.75,25.826,23,24.464,23c-0.597,0-1.072-0.049-1.376-0.097c-0.207-1.263-0.242-4.861,1.837-6.939 C26.697,14.191,29.409,14,30.493,14 M30.493,13c-1.851,0-4.476,0.458-6.276,2.257c-2.941,2.941-2.206,8.18-1.93,8.456 C22.395,23.821,23.267,24,24.464,24c1.855,0,4.491-0.429,6.279-2.217c2.941-2.941,2.298-8.088,1.93-8.456 C32.53,13.184,31.667,13,30.493,13L30.493,13z"/><path fill="none" stroke="#fff" stroke-linecap="round" stroke-miterlimit="10" d="M25.495 20.5c0 0-.24-4.031 4.012-4.031M14.505 20.5c0 0 .24-4.031-4.012-4.031"/><path fill="#4788c7" d="M23 31c0-1.442-2-4-2-4s0 3.448 0 4 .448 1 1 1S23 31.552 23 31zM17 31c0-1.442 2-4 2-4s0 3.448 0 4-.448 1-1 1S17 31.552 17 31z"/></svg>